<?xml version="1.0" encoding="UTF-8"?><svg id="Layer_2" xmlns="http://www.w3.org/2000/svg" viewBox="0 0 105.34033203 125.88232422"><defs><style>.cls-1{fill:red;}</style></defs><g id="Font_Outline"><path class="cls-1" d="M18.46777344,119.80517578c-6.15625-4.05175781-10.77294922-9.90917969-13.85107422-17.57324219-3.07763672-7.66308594-4.61669922-16.86523438-4.61669922-27.60742188v-18.65625C0,37.56347656,5.02539062,23.63427734,15.07568359,14.18066406,25.12597656,4.7265625,39.79345703,0,59.07763672,0c5.65332031,0,10.9453125.36132812,15.87597656,1.08349609,4.93164062.72216797,9.45410156,1.68017578,13.56835938,2.87402344,4.11425781,1.19335938,7.7421875,2.54394531,10.8828125,4.05126953l2.82617188,28.36132812c-4.89941406-1.94726562-10.28515625-3.67480469-16.15917969-5.18261719-5.87304688-1.50732422-12.578125-2.26123047-20.11621094-2.26123047-10.86669922,0-18.78125,2.29296875-23.74365234,6.87841797s-7.44384766,12.06054688-7.44384766,22.42529297v16.77148438c0,6.97265625,1.64892578,12.375,4.94677734,16.20703125,3.29785156,3.83105469,8.55859375,5.74707031,15.78222656,5.74707031,3.01513672,0,5.63720703-.39257812,7.86767578-1.17773438,2.22949219-.78515625,4.11425781-1.83691406,5.65332031-3.15625s2.81054688-2.76367188,3.81542969-4.33398438v-11.21289062l-17.33642578.18847656v-25.91162109h49.84326172v71.79833984h-32.97753906l.75390625-20.54101562h-1.03710938c-.94140625,4.5234375-2.49609375,8.52734375-4.66308594,12.01367188-2.16796875,3.48632812-5.30859375,6.234375-9.42285156,8.24511719-4.11376953,2.00976562-9.62597656,3.01464844-16.53564453,3.01464844-9.17089844,0-16.83447266-2.02539062-22.99023438-6.07714844Z"/></g></svg>